<?xml version="1.0" encoding="UTF-8" standalone="no"?>
<!-- Created with Inkscape (http://www.inkscape.org/) -->

<svg
   version="1.1"
   id="svg2"
   width="4007.8799"
   height="3333.3333"
   viewBox="0 0 4007.8799 3333.3333"
   sodipodi:docname="vecteezy_shopping-cart-icon-vector-illustration_.eps"
   xmlns:inkscape="http://www.inkscape.org/namespaces/inkscape"
   xmlns:sodipodi="http://sodipodi.sourceforge.net/DTD/sodipodi-0.dtd"
   xmlns="http://www.w3.org/2000/svg"
   xmlns:svg="http://www.w3.org/2000/svg">
  <defs
     id="defs6" />
  <sodipodi:namedview
     id="namedview4"
     pagecolor="#ffffff"
     bordercolor="#000000"
     borderopacity="0.25"
     inkscape:showpageshadow="2"
     inkscape:pageopacity="0.0"
     inkscape:pagecheckerboard="0"
     inkscape:deskcolor="#d1d1d1" />
  <g
     id="g8"
     inkscape:groupmode="layer"
     inkscape:label="ink_ext_XXXXXX"
     transform="matrix(1.3333333,0,0,-1.3333333,0,3333.3333)">
    <g
       id="g10"
       transform="scale(0.1)">
      <path
         d="M 30059.1,0 H 0 V 25000 H 30059.1 V 0"
         style="fill:#ffffff;fill-opacity:1;fill-rule:evenodd;stroke:none"
         id="path12" />
      <path
         d="m 20894.5,14668.7 h -2321.4 l 324.8,2625.9 h 2648.5 z m -968.3,-3900.9 h -1835.5 l 322,2604 h 2159.9 z m -2659.7,3900.9 h -2150.3 l -8.7,2625.9 h 2483.8 z m -482.4,-3900.9 h -1655 l -8.6,2604 h 1985.6 z m -4733.3,0 -292.6,2604 h 2065.7 l 8.6,-2604 z m -733.4,6526.8 h 2493.5 l 8.7,-2625.9 h -2207.2 z m -2301.24,-6526.8 -612.34,2604 h 2049.38 l 292.6,-2604 z m -1534.8,6526.8 h 2531.14 l 295,-2625.9 H 8098.84 Z M 26165.7,21176 h -3147.5 c -310.7,0 -569.9,-218.3 -633.8,-509.7 -2,-7.1 -4.6,-13.9 -6.3,-21.1 l -519.9,-2094.4 H 6672.99 c -399.76,0 -723.73,-281.3 -723.73,-628.1 0,-23.7 1.82,-47 4.76,-70 -0.13,-54.7 5.27,-110.1 18.36,-165.7 L 7777.2,10011.4 c 81.94,-347.9 404.68,-574.4 744.86,-539.4 v -0.8 H 19604.3 L 19089.2,7395.8 H 8619.51 c -283.63,0 -513.84,-281.4 -513.84,-628.3 0,-346.7 230.21,-628 513.84,-628 h 1306.33 c -400.18,-201 -675.48,-614.2 -675.48,-1092.4 0,-675.7 547.52,-1223.1 1222.84,-1223.1 675.4,0 1222.9,547.4 1222.9,1223.1 0,478.2 -275.2,891.4 -675.5,1092.4 h 6846.6 c -400.2,-201 -675.5,-614.2 -675.5,-1092.4 0,-675.7 547.5,-1223.1 1222.8,-1223.1 675.6,0 1223,547.4 1223,1223.1 0,478.2 -275.3,891.4 -675.5,1092.4 h 708.4 c 182.2,0 341.2,116.7 432.4,291.3 41.8,63 74.4,134 93.8,212.1 L 23482,19877.7 h 2683.7 c 358.7,0 649.3,290.8 649.3,649.2 0,358.5 -290.6,649.1 -649.3,649.1"
         style="fill:#ba5807;fill-opacity:1;fill-rule:nonzero;stroke:none"
         id="path14" />
    </g>
  </g>
</svg>
